<svg width="300" height="45" viewBox="0 0 300 45" fill="none" xmlns="http://www.w3.org/2000/svg">
<path d="M47.8591 43.9087H33.5971C31.9668 43.9087 30.4635 43.7623 29.0968 43.4499C27.7204 43.1472 26.5783 42.6103 25.6704 41.8586C24.7626 41.0971 24.1183 40.1013 23.7278 38.8614C23.3373 37.6313 23.3081 36.0888 23.6302 34.2534L24.3038 30.4167C24.5771 28.8644 24.9871 27.5562 25.5533 26.5018C26.1097 25.4572 26.7833 24.5981 27.5545 23.9343C28.3354 23.2606 29.2238 22.7627 30.2292 22.4113C31.2249 22.0598 32.2987 21.806 33.4506 21.64C32.4061 21.4838 31.4983 21.1812 30.7368 20.7419C29.9657 20.3025 29.3604 19.7363 28.9211 19.0529C28.4819 18.3695 28.189 17.5787 28.0523 16.6903C27.9059 15.8019 27.9352 14.8159 28.1402 13.7322L28.9114 9.37808C29.1554 7.96248 29.6045 6.68358 30.2585 5.54128C30.9126 4.39908 31.7716 3.42278 32.8356 2.61248C33.8997 1.80218 35.159 1.18718 36.6037 0.757581C38.0582 0.328081 39.6982 0.113281 41.5139 0.113281H57.1915C55.1024 0.982181 52.8084 3.56928 52.8084 3.56928C52.2325 4.16478 51.7346 4.81888 51.3148 5.54128C50.6608 6.68358 50.2118 7.96248 49.9677 9.37808L49.9287 9.62208H44.1496C43.6616 9.62208 43.2125 9.68068 42.822 9.80758C42.4218 9.92478 42.0704 10.1005 41.7775 10.3251C41.4749 10.5496 41.2308 10.8327 41.0258 11.1549C40.8208 11.4868 40.6842 11.848 40.6256 12.2581L40.2254 14.6206C40.1473 15.0112 40.1473 15.3528 40.2254 15.6457C40.3035 15.9484 40.4597 16.2022 40.6744 16.4267C40.8892 16.6513 41.1625 16.827 41.5139 16.9539C41.8654 17.0711 42.2558 17.1394 42.7147 17.1394L48.6108 17.0906C48.6108 17.0906 47.5468 20.654 49.2551 22.587C49.2551 22.587 47.1075 23.8562 45.5944 26.5018L40.0985 26.5214C39.6494 26.5214 39.2394 26.5897 38.8587 26.7166C38.478 26.8533 38.1461 27.029 37.8532 27.2438C37.5506 27.4586 37.3163 27.7222 37.1309 28.0444C36.9454 28.3568 36.8185 28.7082 36.7599 29.0987L36.3011 31.6468C36.223 32.0568 36.223 32.4278 36.3109 32.7793C36.4085 33.1307 36.5744 33.4138 36.8087 33.6481C37.043 33.8922 37.3359 34.0777 37.6775 34.2241C38.029 34.3608 38.4487 34.4292 38.9368 34.4292H44.667C44.667 34.4292 43.437 42.6493 47.8591 43.9087Z" fill="#E20000"/>
<path d="M24.4495 43.9087H10.1874C8.55716 43.9087 7.05384 43.7623 5.68718 43.4499C4.31076 43.1472 3.16862 42.6103 2.26077 41.8586C1.35292 41.0971 0.708629 40.1013 0.318155 38.8614C-0.0723199 37.6313 -0.101596 36.0888 0.220545 34.2534L0.894116 30.4167C1.16745 28.8644 1.57744 27.5562 2.14363 26.5018C2.70006 25.4572 3.37363 24.5981 4.14482 23.9343C4.92577 23.2606 5.81409 22.7627 6.81956 22.4113C7.81527 22.0598 8.88907 21.806 10.041 21.64C8.99645 21.4838 8.0886 21.1812 7.32718 20.7419C6.55599 20.3025 5.95075 19.7363 5.51147 19.0529C5.07219 18.3695 4.77933 17.5787 4.64267 16.6903C4.49624 15.8019 4.52552 14.8159 4.73052 13.7322L5.50171 9.37808C5.74576 7.96248 6.1948 6.68358 6.84884 5.54128C7.50289 4.39908 8.36193 3.42278 9.42597 2.61248C10.49 1.80218 11.7493 1.18718 13.194 0.757581C14.6486 0.328081 16.2886 0.113281 18.1043 0.113281H33.7818C31.6928 0.982181 29.3987 3.56928 29.3987 3.56928C28.8228 4.16478 28.3249 4.81888 27.9052 5.54128C27.2511 6.68358 26.8021 7.96248 26.558 9.37808L26.519 9.62208H20.74C20.2519 9.62208 19.8028 9.68068 19.4124 9.80758C19.0121 9.92478 18.6607 10.1005 18.3678 10.3251C18.0652 10.5496 17.8212 10.8327 17.6162 11.1549C17.4112 11.4868 17.2745 11.848 17.2159 12.2581L16.8157 14.6206C16.7376 15.0112 16.7376 15.3528 16.8157 15.6457C16.8938 15.9484 17.05 16.2022 17.2647 16.4267C17.4795 16.6513 17.7528 16.827 18.1043 16.9539C18.4557 17.0711 18.8462 17.1394 19.305 17.1394L25.2011 17.0906C25.2011 17.0906 24.1371 20.654 25.8454 22.587C25.8454 22.587 23.6978 23.8562 22.1847 26.5018L16.6888 26.5214C16.2398 26.5214 15.8297 26.5897 15.449 26.7166C15.0683 26.8533 14.7364 27.029 14.4436 27.2438C14.1409 27.4586 13.9067 27.7222 13.7212 28.0444C13.5357 28.3568 13.4088 28.7082 13.3502 29.0987L12.8914 31.6468C12.8133 32.0568 12.8133 32.4278 12.9012 32.7793C12.9988 33.1307 13.1648 33.4138 13.3991 33.6481C13.6333 33.8922 13.9262 34.0777 14.2679 34.2241C14.6193 34.3608 15.039 34.4292 15.5271 34.4292H21.2574C21.2574 34.4292 20.0273 42.6493 24.4495 43.9087Z" fill="#E20000"/>
<path d="M95.0098 3.251C96.8744 5.6526 96.0153 9.4503 96.0153 9.4503L95.6053 11.7445L83.0809 13.2577L83.1199 13.0527C83.4518 11.1392 82.1339 9.587 80.1816 9.626L66.5833 9.8408C65.2947 9.8603 64.2014 10.7878 63.9769 12.0569L63.6255 14.029C63.3521 15.5715 64.5333 16.9773 66.105 16.9773H83.9106C85.6385 16.9773 87.1906 17.0945 88.567 17.3288C89.9435 17.5631 91.0856 18.0219 91.9837 18.6858C92.8915 19.3497 93.5163 20.2966 93.8677 21.5072C94.2191 22.7178 94.2289 24.2896 93.897 26.2226L92.4815 34.3549C92.1301 36.3465 91.5834 37.9769 90.8318 39.2363C90.0801 40.4957 89.143 41.4817 88.0106 42.1944C86.8782 42.9071 85.5799 43.3854 84.0961 43.6393C82.6123 43.8931 80.9821 44.0298 79.1956 44.0298H56.88C55.0936 44.0298 53.5024 43.9028 52.1162 43.6393C50.73 43.3854 49.5977 42.8973 48.7289 42.1944C47.8601 41.4915 47.2646 40.5054 46.9522 39.2558C46.6398 38.0062 46.552 36.3075 46.9034 34.3159L47.3622 31.6995L59.9062 30.0984L59.8574 30.3522C59.4962 32.4707 61.1264 34.4135 63.274 34.4135H77.4385C79.1273 34.4135 80.5721 33.2029 80.8551 31.5335L81.0016 30.6744C81.3725 28.5559 79.7325 26.6033 77.5849 26.6033H60.8141C59.0276 26.6033 57.4364 26.4667 56.0503 26.2031C54.6641 25.9395 53.5415 25.4513 52.6727 24.7387C51.8136 24.026 51.2279 23.04 50.9155 21.7611C50.6031 20.4919 50.6324 18.8615 50.9741 16.8895L52.3017 9.3038C52.6336 7.3708 53.19 5.799 53.9807 4.5885C54.7715 3.3779 55.7379 2.4309 56.88 1.7378C58.0222 1.0446 59.3205 0.5858 60.7945 0.3515C62.2588 0.1172 63.85 0 65.5583 0H86.273C90.5096 0.1464 93.1258 0.8103 94.9903 3.2119L95.0098 3.251Z" fill="white"/>
<path d="M111.662 43.6121L117.236 11.5611H101.275L103.218 0.460876H147.849L145.907 11.5611H129.946L124.372 43.6121H111.672H111.662Z" fill="white"/>
<path d="M137.61 43.6121L167.384 0.460876H178.883L193.77 43.6121H179.566L177.038 35.7824H156.636L151.364 43.6121H137.62H137.61ZM162.512 26.996H174.285L170.468 15.2514L162.512 26.996Z" fill="white"/>
<path d="M199.617 43.6121L207.143 0.460876H238.977C240.724 0.460876 242.286 0.587876 243.672 0.841676C245.058 1.09548 246.2 1.57388 247.089 2.25728C247.987 2.95038 248.612 3.89738 248.973 5.10798C249.334 6.31858 249.344 7.88058 249.021 9.79408L247.352 19.137C247.108 20.6014 246.688 21.8608 246.093 22.9444C245.497 24.0281 244.746 24.9263 243.828 25.6585C242.911 26.3907 241.837 26.9471 240.607 27.3376C239.377 27.7282 238 27.9722 236.477 28.0796H234.877L246.747 43.6121H231.187L220.312 28.968H214.914L212.356 43.6121H199.626H199.617ZM216.661 18.8343H232.133C232.583 18.8343 232.983 18.7855 233.334 18.6977C233.686 18.6098 233.988 18.4634 234.262 18.2681C234.525 18.0728 234.74 17.819 234.906 17.4968C235.072 17.1747 235.199 16.7939 235.306 16.3448L235.804 13.3868C235.882 12.9767 235.892 12.6155 235.833 12.3031C235.775 11.9907 235.648 11.7369 235.462 11.5318C235.277 11.3268 235.023 11.1706 234.711 11.0535C234.388 10.9363 234.008 10.8875 233.559 10.8875H218.086L216.671 18.8441L216.661 18.8343Z" fill="white"/>
<path d="M250.292 43.6101L251.064 39.1095L278.797 10.9051L278.885 11.1784H258.668L260.552 0.449219H300L299.229 4.94982L271.485 33.1543L271.359 32.8809H294.533L292.688 43.6101H250.283H250.292Z" fill="white"/>
<path d="M82.907 10.9922C82.907 10.9922 82.292 13.1595 77.1963 13.7746L83.0925 13.2571L83.8051 12.6909L82.907 10.9922Z" fill="white"/>
<path d="M47.8198 33.9427C47.8198 33.9427 46.4922 31.8437 41.3965 32.4685L47.4488 31.707L48.2786 32.0878L47.8198 33.9525V33.9427Z" fill="white"/>
</svg>